<svg width="177" height="63" viewBox="0 0 177 63" fill="none" xmlns="http://www.w3.org/2000/svg">
<path d="M53.4441 37.28V39H22.1641V37.28H26.0441V11.04H35.6441C40.6574 11.04 44.5107 12.2667 47.2041 14.72C49.8974 17.1467 51.2441 20.5733 51.2441 25C51.2441 30.9467 48.8974 35.04 44.2041 37.28H53.4441ZM46.4841 25C46.4841 18.6 42.8174 15.4 35.4841 15.4H30.7641V34.56H36.0041C39.3907 34.56 41.9774 33.76 43.7641 32.16C45.5774 30.5333 46.4841 28.1467 46.4841 25ZM87.0531 37.28V39H53.4531V37.28H62.6131C60.4265 36.0267 58.6931 34.3067 57.4131 32.12C56.1598 29.9333 55.5331 27.4933 55.5331 24.8C55.5331 20.6933 56.9465 17.2667 59.7731 14.52C62.5998 11.7467 66.0931 10.36 70.2531 10.36C74.4131 10.36 77.9065 11.7467 80.7331 14.52C83.5598 17.2667 84.9731 20.6933 84.9731 24.8C84.9731 27.4667 84.3331 29.9067 83.0531 32.12C81.7998 34.3333 80.0798 36.0533 77.8931 37.28H87.0531ZM77.2531 17.64C75.3598 15.6667 73.0265 14.68 70.2531 14.68C67.4798 14.68 65.1331 15.6667 63.2131 17.64C61.3198 19.6133 60.3731 22.0133 60.3731 24.84C60.3731 27.64 61.3198 30.0267 63.2131 32C65.1331 33.9733 67.4798 34.96 70.2531 34.96C73.0265 34.96 75.3598 33.9733 77.2531 32C79.1731 30.0267 80.1331 27.64 80.1331 24.84C80.1331 22.0133 79.1731 19.6133 77.2531 17.64ZM120.041 37.28V27.96L109.641 11.04H114.801L122.441 23.76L130.081 11.04H135.241L124.841 27.96V37.28H134.921V39H109.961V37.28H120.041Z" fill="white"/>
<path d="M84.9269 39V37.28H88.7669L97.2469 24.64L88.3269 11.04H94.1669L100.407 20.48H100.607L106.847 11.04H112.687L103.767 24.64L112.207 37.28H116.087V39H107.487L100.607 28.48H100.407L93.5269 39H84.9269ZM128.802 39V37.28H132.642L141.122 24.64L132.202 11.04H138.042L144.282 20.48H144.482L150.722 11.04H156.562L147.642 24.64L156.082 37.28H159.962V39H151.362L144.482 28.48H144.282L137.402 39H128.802Z" fill="#FF0408"/>
<path d="M87.0469 43H109.961V45H87.0469V43ZM130.922 43H157.842V45H130.922V43Z" fill="#FF0408"/>
<path d="M109.961 43H130.922V45H109.961V43Z" fill="white"/>
<path d="M32.5 36.5C12.5 42.3333 -16.5 54.9 27.5 58.5C71.5 62.1 129.5 45.3333 153 36.5" stroke="url(#paint0_linear_17_34)" stroke-width="7"/>
<defs>
<linearGradient id="paint0_linear_17_34" x1="18" y1="44.5" x2="137.239" y2="-0.810851" gradientUnits="userSpaceOnUse">
<stop stop-color="white"/>
<stop offset="1" stop-color="#FF0000"/>
</linearGradient>
</defs>
</svg>
